<?xml version="1.0" encoding="utf-8" ?><svg xmlns="http://www.w3.org/2000/svg" xmlns:xlink="http://www.w3.org/1999/xlink" width="1024" height="1024" viewBox="0 0 1024 1024"><path fill="white" d="M0 0L1024 0L1024 1024L0 1024L0 0Z"/><path fill="#2D2D2D" d="M466.298 340.694C489.555 340.824 497.813 351.149 512.664 366.48L540.696 395.255C559.811 414.477 578.789 433.834 597.632 453.323C607.951 463.795 619.181 474.735 628.95 485.705C632.829 490.06 636.269 499.031 637.445 504.855C639.439 513.727 637.261 531.23 631.22 538.487C615.612 557.239 595.849 575.532 578.87 593.067L526.231 647.105C517.332 656.278 507.45 667.293 497.868 675.599C492.254 680.465 482.835 683.159 475.605 684.455C448.283 686.144 438.811 672.104 421.172 654.018C418.516 651.295 415.784 648.473 413.125 645.74L366.32 598.039L328.895 560.311C324.309 555.646 314.44 546.023 310.885 541.031C306.089 534.335 303.137 526.496 302.325 518.299C300.971 504.107 304.639 491.242 314.095 480.592C334.128 458.031 356.278 437.244 377.161 415.49L415.511 375.253C430.773 359.213 442.705 342.804 466.298 340.694Z"/><path fill="#E2694A" d="M551.329 340.682C560.607 339.282 576.566 342.624 583.4 349.141C606.257 370.935 627.676 394.341 649.743 416.93C664.658 432.074 679.436 447.352 694.075 462.761C700.088 469.058 707.404 475.749 712.776 482.34C723.818 495.889 726.016 522.181 715.87 536.738C706.458 550.242 691.246 563.573 679.374 575.181C670.63 583.883 661.97 592.669 653.395 601.538L611.946 643.949C597.329 659.136 583.367 677.796 562.361 683.067C548.521 685.343 535.907 683.001 524.881 673.939C528.036 669.901 533.896 664.359 537.65 660.641L557.868 640.577L622.002 575.443C629.555 567.688 644.48 553.16 649.839 544.941C654.794 537.453 657.805 528.849 658.6 519.906C659.776 507.7 657.075 495.434 650.879 484.852C644.017 473.396 627.317 459.104 617.646 448.873C602.907 433.295 587.809 418.076 572.845 402.719C556.963 386.42 538.755 370.365 524.195 352.942C533.373 345.361 539.248 342.093 551.329 340.682Z"/></svg>